<?xml version="1.0" encoding="UTF-8" standalone="no"?>
<svg
   xmlns:dc="http://purl.org/dc/elements/1.1/"
   xmlns:cc="http://creativecommons.org/ns#"
   xmlns:rdf="http://www.w3.org/1999/02/22-rdf-syntax-ns#"
   xmlns:svg="http://www.w3.org/2000/svg"
   xmlns="http://www.w3.org/2000/svg"
   xmlns:sodipodi="http://sodipodi.sourceforge.net/DTD/sodipodi-0.dtd"
   xmlns:inkscape="http://www.inkscape.org/namespaces/inkscape"
   width="180"
   height="70"
   preserveAspectRatio="xMidYMid meet"
   version="1.1"
   id="svg3766"
   sodipodi:docname="kibana.svg"
   inkscape:version="1.0beta1 (32d4812, 2019-09-19)">
  <defs
     id="defs3770">
    <clipPath
       id="clipPath160"
       clipPathUnits="userSpaceOnUse">
      <path
         inkscape:connector-curvature="0"
         id="path158"
         d="M 0,800 H 800 V 0 H 0 Z" />
    </clipPath>
    <clipPath
       clipPathUnits="userSpaceOnUse"
       id="clipPath252">
      <path
         d="M 0,800 H 800 V 0 H 0 Z"
         id="path250"
         inkscape:connector-curvature="0" />
    </clipPath>
  </defs>
  <sodipodi:namedview
     pagecolor="#ffffff"
     bordercolor="#666666"
     borderopacity="1"
     objecttolerance="10"
     gridtolerance="10"
     guidetolerance="10"
     inkscape:pageopacity="0"
     inkscape:pageshadow="2"
     inkscape:window-width="1678"
     inkscape:window-height="993"
     id="namedview3768"
     showgrid="false"
     inkscape:pagecheckerboard="true"
     inkscape:zoom="1.6039802"
     inkscape:cx="138.68972"
     inkscape:cy="-31.033792"
     inkscape:window-x="165"
     inkscape:window-y="200"
     inkscape:window-maximized="0"
     inkscape:current-layer="svg3766"
     inkscape:document-rotation="0" />
  <metadata
     id="metadata4">Created by potrace 1.11, written by Peter Selinger 2001-2013image/svg+xml<rdf:RDF>
  <cc:Work
     rdf:about="">
    <dc:format>image/svg+xml</dc:format>
    <dc:type
       rdf:resource="http://purl.org/dc/dcmitype/StillImage" />
    <dc:title />
  </cc:Work>
</rdf:RDF>
</metadata>
  <g
     id="g3759"
     transform="translate(0,-209)">
    <title
       id="title3756">background</title>
    <rect
       id="canvas_background"
       height="279"
       width="600"
       y="-1"
       x="-1"
       style="fill:none" />
  </g>
  <g
     transform="matrix(0.31301914,0,0,-0.29675433,-145.14095,210.15682)"
     id="g246">
    <g
       id="g248"
       clip-path="url(#clipPath252)">
      <g
         id="g254"
         transform="translate(618.9734,556.0496)">
        <path
           d="m 0,0 h -88.133 c -3.661,0 -6.628,-2.967 -6.628,-6.628 v -7.921 c 0,-3.66 2.967,-6.627 6.628,-6.627 H 0 c 3.66,0 6.628,2.967 6.628,6.627 v 7.921 C 6.628,-2.967 3.66,0 0,0"
           style="fill:#fdd835;fill-opacity:1;fill-rule:nonzero;stroke:none"
           id="path256"
           inkscape:connector-curvature="0" />
      </g>
      <g
         id="g258"
         transform="translate(636.8099,582.5079)">
        <path
           d="m 0,0 h -123.806 c -3.661,0 -6.628,-2.967 -6.628,-6.628 v -7.92 c 0,-3.661 2.967,-6.628 6.628,-6.628 H 0 c 3.66,0 6.628,2.967 6.628,6.628 v 7.92 C 6.628,-2.967 3.66,0 0,0"
           style="fill:#fdd835;fill-opacity:1;fill-rule:nonzero;stroke:none"
           id="path260"
           inkscape:connector-curvature="0" />
      </g>
      <g
         id="g262"
         transform="translate(636.8099,608.9663)">
        <path
           d="m 0,0 h -123.806 c -3.661,0 -6.628,-2.967 -6.628,-6.628 v -7.92 c 0,-3.661 2.967,-6.628 6.628,-6.628 H 0 c 3.66,0 6.628,2.967 6.628,6.628 v 7.92 C 6.628,-2.967 3.66,0 0,0"
           style="fill:#fdd835;fill-opacity:1;fill-rule:nonzero;stroke:none"
           id="path264"
           inkscape:connector-curvature="0" />
      </g>
      <g
         id="g266"
         transform="translate(530.8401,614.2485)">
        <path
           d="m 0,0 h 88.133 c 3.661,0 6.628,2.967 6.628,6.628 v 7.92 c 0,3.661 -2.967,6.628 -6.628,6.628 L 0,21.176 c -3.66,0 -6.628,-2.967 -6.628,-6.628 V 6.628 C -6.628,2.967 -3.66,0 0,0"
           style="fill:#fdd835;fill-opacity:1;fill-rule:nonzero;stroke:none"
           id="path268"
           inkscape:connector-curvature="0" />
      </g>
      <g
         id="g270"
         transform="translate(547.5665,526.9107)">
        <path
           d="M 0,0 27.34,-18.496 54.68,0 c 1.198,0.81 0.624,2.68 -0.821,2.68 H 0.822 C -0.624,2.68 -1.197,0.81 0,0"
           style="fill:#3e2723;fill-opacity:1;fill-rule:nonzero;stroke:none"
           id="path272"
           inkscape:connector-curvature="0" />
      </g>
      <g
         id="g274"
         transform="translate(592.4271,661.8831)">
        <path
           d="m 0,0 h -2.559 l 8.676,8.676 c 1.303,-0.692 2.957,-0.49 4.055,0.608 1.347,1.346 1.347,3.529 0,4.876 -1.346,1.347 -3.53,1.347 -4.876,0 -1.098,-1.098 -1.3,-2.752 -0.608,-4.055 L -5.416,0 h -24.208 l -10.105,10.105 c 0.693,1.303 0.49,2.957 -0.607,4.055 -1.347,1.347 -3.53,1.347 -4.877,0 -1.346,-1.347 -1.346,-3.53 0,-4.876 1.098,-1.098 2.752,-1.3 4.055,-0.608 L -32.481,0 h -2.56 c -7.611,0 -13.782,-6.17 -13.782,-13.782 v -3.697 c 0,-2.042 1.655,-3.697 3.697,-3.697 h 55.211 c 2.042,0 3.697,1.655 3.697,3.697 v 3.697 C 13.782,-6.17 7.612,0 0,0"
           style="fill:#3e2723;fill-opacity:1;fill-rule:nonzero;stroke:none"
           id="path276"
           inkscape:connector-curvature="0" />
      </g>
    </g>
  </g>
  <text
     transform="scale(0.9603727,1.0412624)"
     y="47.409668"
     x="56.795265"
     style="font-variant:normal;font-weight:900;font-stretch:normal;font-size:35.0648px;font-family:'Roboto Black';-inkscape-font-specification:Roboto-Black;writing-mode:lr-tb;fill:#fdd835;fill-opacity:1;fill-rule:nonzero;stroke:none;stroke-width:0.653146"
     id="text280"><tspan
       style="stroke-width:0.653146"
       x="56.795265 79.306938 99.258789"
       y="47.409668"
       sodipodi:role="line"
       id="tspan278">BEE</tspan></text>
  <text
     transform="scale(0.8746153,1.1433598)"
     y="43.494659"
     x="130.91151"
     style="font-variant:normal;font-weight:300;font-stretch:normal;font-size:31.9337px;font-family:'Roboto Light';-inkscape-font-specification:Roboto-Light;writing-mode:lr-tb;fill:#3e2723;fill-opacity:1;fill-rule:nonzero;stroke:none;stroke-width:0.594823"
     id="text284"><tspan
       style="stroke-width:0.594823"
       x="130.91151 153.48866 162.12669 181.8298"
       y="43.494659"
       sodipodi:role="line"
       id="tspan282">HIVE</tspan></text>
</svg>
